<?xml version="1.0" encoding="UTF-8" standalone="no"?>
<!-- Created with Inkscape (http://www.inkscape.org/) -->

<svg
   width="210mm"
   height="297mm"
   viewBox="0 0 210 297"
   version="1.1"
   id="svg1"
   inkscape:version="1.3 (0e150ed6c4, 2023-07-21)"
   sodipodi:docname="клякса2.svg"
   xmlns:inkscape="http://www.inkscape.org/namespaces/inkscape"
   xmlns:sodipodi="http://sodipodi.sourceforge.net/DTD/sodipodi-0.dtd"
   xmlns="http://www.w3.org/2000/svg"
   xmlns:svg="http://www.w3.org/2000/svg">
  <sodipodi:namedview
     id="namedview1"
     pagecolor="#ffffff"
     bordercolor="#000000"
     borderopacity="0.25"
     inkscape:showpageshadow="2"
     inkscape:pageopacity="0.0"
     inkscape:pagecheckerboard="0"
     inkscape:deskcolor="#d1d1d1"
     inkscape:document-units="mm"
     inkscape:zoom="0.70110129"
     inkscape:cx="396.51902"
     inkscape:cy="561.25984"
     inkscape:window-width="1920"
     inkscape:window-height="1001"
     inkscape:window-x="-9"
     inkscape:window-y="-9"
     inkscape:window-maximized="1"
     inkscape:current-layer="layer1" />
  <defs
     id="defs1">
    <inkscape:path-effect
       effect="bspline"
       id="path-effect2"
       is_visible="true"
       lpeversion="1.3"
       weight="33.333333"
       steps="2"
       helper_size="0"
       apply_no_weight="true"
       apply_with_weight="true"
       only_selected="false"
       uniform="false" />
    <inkscape:path-effect
       effect="bspline"
       id="path-effect1"
       is_visible="true"
       lpeversion="1.3"
       weight="33.333333"
       steps="2"
       helper_size="0"
       apply_no_weight="true"
       apply_with_weight="true"
       only_selected="false"
       uniform="false" />
  </defs>
  <g
     inkscape:label="Слой 1"
     inkscape:groupmode="layer"
     id="layer1">
    <path
       style="fill:#474873;stroke-width:0.264583;fill-opacity:1"
       d="m 40.379923,15.28399 c -3.522235,2.327191 -7.799238,4.08831 -10.315128,5.786547 -2.51589,1.698238 -3.27064,3.333529 -4.968888,8.994363 -1.698248,5.660835 -4.339872,15.346788 -5.28332,22.894492 -0.943449,7.547704 -0.188699,12.956745 1.06926,21.63666 1.257959,8.679916 3.019042,20.630121 2.515838,31.071128 -0.503204,10.441 -3.270622,19.37221 -5.409137,31.07121 -2.138515,11.699 -3.648014,26.16504 -4.214084,38.43007 -0.56607,12.26503 -0.188695,22.32836 2.327235,31.38562 2.51593,9.05726 7.170218,17.10792 9.560309,28.11505 2.390091,11.00713 2.515883,24.97 6.918766,34.21592 4.402884,9.24592 13.082496,13.77442 25.724978,15.91291 12.642482,2.1385 29.246978,1.88691 42.078068,0.12576 12.8311,-1.76115 21.8881,-5.03174 29.87609,-4.84301 7.988,0.18873 14.90654,3.83669 22.83166,5.15752 7.92512,1.32083 16.85633,0.3145 23.08318,-4.33997 6.22685,-4.65447 9.74901,-12.95671 11.51013,-20.94471 1.76112,-7.98801 1.76112,-15.6613 3.89966,-24.59279 2.13854,-8.93149 6.41546,-19.12061 8.17657,-28.17787 1.76111,-9.05726 1.00636,-16.98213 -1.00638,-23.39768 -2.01274,-6.41555 -5.28332,-11.32143 -7.61053,-21.44801 -2.3272,-10.12658 -3.71091,-25.47316 -2.57873,-38.61876 1.13219,-13.1456 4.78015,-24.089472 7.54228,-33.241818 2.76213,-9.152346 4.15655,-14.622746 2.96146,-23.680044 C 197.87412,57.73928 193.84879,46.04066 188.56537,35.914145 183.28195,25.787629 176.74079,17.233801 168.75276,13.208392 160.76474,9.1829834 151.33037,9.6861498 141.76992,11.195705 132.20946,12.70526 122.52351,15.221092 113.65494,15.032372 104.78637,14.843652 96.735703,11.950444 86.168864,10.18932 75.602025,8.4281957 62.519694,7.7992375 54.594635,8.9314136 46.669576,10.06359 43.902158,12.956798 40.379923,15.28399 Z"
       id="path1"
       inkscape:path-effect="#path-effect1"
       inkscape:original-d="m 41.134688,15.850063 c -4.277,1.761119 -8.554003,3.522237 -12.831003,5.283355 -0.754779,1.635357 -1.50953,3.270648 -2.264295,4.905972 -2.64173,9.686345 -5.283355,19.372298 -7.925032,29.058448 0.75478,5.409258 1.50953,10.818299 2.264295,16.227446 1.761153,11.950684 3.522236,23.900889 5.283354,35.851336 -2.767527,8.93156 -5.534942,17.86277 -8.302414,26.79415 -1.50956,14.46662 -3.01906,28.93266 -4.528589,43.39899 0.37739,10.06373 0.754764,20.12706 1.132147,30.19059 4.654477,8.05099 9.308767,16.10165 13.963151,24.15248 0.125796,13.96343 0.251587,27.9263 0.377383,41.88946 8.679969,4.52869 17.359593,9.05716 26.039389,13.58577 16.60516,-0.25159 33.209656,-0.50318 49.814486,-0.75478 9.05736,-3.2707 18.11436,-6.54129 27.17153,-9.81194 6.91882,3.6481 13.83736,7.29607 20.75604,10.94409 8.93156,-1.00636 17.86277,-2.01271 26.79416,-3.01905 3.5223,-8.3026 7.04447,-16.60483 10.56671,-24.90725 0,-7.67359 0,-15.34688 0,-23.02033 4.27708,-10.18953 8.554,-20.37865 12.831,-30.56798 -0.75478,-7.92519 -1.50953,-15.85006 -2.2643,-23.77509 -3.27071,-4.90607 -6.54129,-9.81195 -9.81194,-14.71792 -1.38376,-15.34719 -2.76747,-30.69377 -4.15121,-46.04066 3.64811,-10.94431 7.29607,-21.888181 10.9441,-32.832271 1.63535,-7.422004 3.27064,-12.831005 4.90597,-19.246505 C 197.87412,57.739282 193.84879,46.040661 189.82338,34.341805 183.28195,25.78763 176.74079,17.233799 170.19949,8.6797966 160.76474,9.1829833 151.33037,9.6861499 141.8958,10.189327 132.20946,12.70526 122.52351,15.221093 112.83736,17.736976 104.78637,14.843652 96.735703,11.950445 88.684879,9.057179 75.602025,8.4281956 62.519694,7.7992374 49.437102,7.1702667 46.669576,10.06359 43.902158,12.956798 41.134688,15.850063 Z" />
  </g>
</svg>
