<svg width="900" height="512" viewBox="0 0 900 512" fill="none" xmlns="http://www.w3.org/2000/svg">
<g clip-path="url(#clip0_12_2)">
<path d="M876 229L876 38.5C876 27.4543 867.046 18.5 856 18.5L39.5002 18.5C28.4545 18.5 19.5002 27.4543 19.5002 38.5L19.5002 465C19.5002 476.046 28.4545 485 39.5002 485L612.5 485" stroke="white" stroke-width="13"/>
<path d="M875.792 275.024C879.383 274.75 882.071 271.636 881.795 268.07C881.518 264.503 878.383 261.834 874.791 262.108L875.792 275.024ZM767.289 317.393L762.591 312.899L762.583 312.908L767.289 317.393ZM813.802 280.883L811.874 274.696C811.398 274.842 810.941 275.041 810.511 275.291L813.802 280.883ZM788.418 295.611L785.127 290.018C784.61 290.319 784.136 290.689 783.72 291.117L788.418 295.611ZM835.103 274.338L833.733 268.006C833.545 268.046 833.358 268.094 833.175 268.151L835.103 274.338ZM854.848 270.126L854.348 263.668C854.055 263.69 853.765 263.732 853.478 263.793L854.848 270.126ZM683.909 413.027L771.996 321.878L762.583 312.908L674.496 404.057L683.909 413.027ZM771.987 321.887L793.117 300.105L783.72 291.117L762.591 312.899L771.987 321.887ZM791.71 301.203L817.093 286.476L810.511 275.291L785.127 290.018L791.71 301.203ZM815.731 287.071L837.032 280.526L833.175 268.151L811.874 274.696L815.731 287.071ZM836.474 280.671L856.219 276.459L853.478 263.793L833.733 268.006L836.474 280.671ZM855.349 276.584L875.792 275.024L874.791 262.108L854.348 263.668L855.349 276.584Z" fill="white"/>
<path d="M868.798 267.768C869.104 264.204 872.263 261.561 875.852 261.866C879.442 262.171 882.103 265.307 881.796 268.871L868.798 267.768ZM825.204 375.143L829.689 379.846L829.68 379.854L825.204 375.143ZM862.368 329.27L868.582 331.237C868.431 331.708 868.226 332.161 867.971 332.585L862.368 329.27ZM847.32 354.349L852.924 357.664C852.617 358.175 852.24 358.642 851.805 359.052L847.32 354.349ZM869.141 308.175L875.506 309.59C875.464 309.776 875.414 309.96 875.355 310.142L869.141 308.175ZM873.551 288.605L880.05 289.157C880.025 289.447 879.981 289.735 879.917 290.02L873.551 288.605ZM728.186 457.118L820.728 370.431L829.68 379.854L737.138 466.541L728.186 457.118ZM820.719 370.44L842.835 349.645L851.805 359.052L829.689 379.846L820.719 370.44ZM841.716 351.033L856.764 325.954L867.971 332.585L852.924 357.664L841.716 351.033ZM856.153 327.302L862.926 306.207L875.355 310.142L868.582 331.237L856.153 327.302ZM862.775 306.76L867.186 287.19L879.917 290.02L875.506 309.59L862.775 306.76ZM867.052 288.053L868.798 267.768L881.796 268.871L880.05 289.157L867.052 288.053Z" fill="white"/>
<path d="M681.377 404.502L646.902 402.891L705.829 345.238L740.551 346.861" stroke="white" stroke-width="13" stroke-linejoin="round"/>
<ellipse cx="22.2305" cy="22.0743" rx="22.2305" ry="22.0743" transform="matrix(1 -0.000539273 -0.000543071 1 775.756 320.921)" stroke="white" stroke-width="13" stroke-linejoin="round"/>
<path d="M734.511 458.605L734.492 492.877L795.286 437.168L795.305 402.65" stroke="white" stroke-width="13" stroke-linejoin="round"/>
<path d="M687.5 416L660.105 418.6L719.849 476.697L722 450" stroke="white" stroke-width="13" stroke-linejoin="round"/>
<ellipse cx="3.21107" cy="3.18851" rx="3.21107" ry="3.18851" transform="matrix(1 -0.000539273 -0.000543071 1 704.576 399.445)" fill="white"/>
<path d="M664.428 442.345L642.79 464.72" stroke="white" stroke-width="13" stroke-linecap="round" stroke-linejoin="round"/>
<path d="M721.881 406.98C719.256 404.532 715.128 404.661 712.66 407.269C710.193 409.876 710.322 413.975 712.947 416.424L721.881 406.98ZM712.947 416.424L745.541 446.823L754.475 437.379L721.881 406.98L712.947 416.424Z" fill="white"/>
<line x1="6.5" y1="-6.5" x2="28.3462" y2="-6.5" transform="matrix(-0.680889 0.732387 -0.737212 -0.675661 692.683 467.637)" stroke="white" stroke-width="13" stroke-linecap="round" stroke-linejoin="round"/>
<line y1="-6.5" x2="68.6713" y2="-6.5" transform="matrix(0.7478 0.663924 -0.669237 0.743049 805.909 288.038)" stroke="white" stroke-width="13" stroke-linejoin="round"/>
<path d="M679.717 456.089L642.645 495.353" stroke="white" stroke-width="13" stroke-linecap="round" stroke-linejoin="round"/>
<line y1="-6.5" x2="75.8434" y2="-6.5" transform="matrix(-0.709597 -0.704608 0.709594 -0.704611 736.162 456.331)" stroke="white" stroke-width="13" stroke-linejoin="round"/>
</g>
<defs>
<clipPath id="clip0_12_2">
<rect width="900" height="512" fill="white"/>
</clipPath>
</defs>
</svg>
