<svg width="512" height="512" viewBox="0 0 512 512" fill="none" xmlns="http://www.w3.org/2000/svg">
<g clip-path="url(#clip0_48_3)">
<g filter="url(#filter0_d_48_3)">
<path d="M249.873 2.9822C253.741 1.09964 258.259 1.09964 262.127 2.9822L289.807 16.4549C292.308 17.6724 295.116 18.1171 297.871 17.7321L328.36 13.4724C332.62 12.8772 336.917 14.2735 340.014 17.2591L362.176 38.626C364.179 40.5569 366.711 41.8474 369.451 42.3327L399.763 47.7029C403.999 48.4533 407.654 51.1092 409.677 54.9057L424.151 82.0752C425.46 84.5305 427.469 86.5404 429.925 87.8485L457.094 102.323C460.891 104.346 463.547 108.001 464.297 112.237L469.667 142.549C470.153 145.289 471.443 147.821 473.374 149.824L494.741 171.986C497.726 175.083 499.123 179.38 498.528 183.64L494.268 214.129C493.883 216.884 494.328 219.692 495.545 222.193L509.018 249.873C510.9 253.741 510.9 258.259 509.018 262.127L495.545 289.807C494.328 292.308 493.883 295.116 494.268 297.871L498.528 328.36C499.123 332.62 497.726 336.917 494.741 340.014L473.374 362.176C471.443 364.179 470.153 366.711 469.667 369.451L464.297 399.763C463.547 403.999 460.891 407.654 457.094 409.677L429.925 424.151C427.469 425.46 425.46 427.47 424.151 429.925L409.677 457.094C407.654 460.891 403.999 463.547 399.763 464.297L369.451 469.667C366.711 470.153 364.179 471.443 362.176 473.374L340.014 494.741C336.917 497.726 332.62 499.123 328.36 498.528L297.871 494.268C295.116 493.883 292.308 494.328 289.807 495.545L262.127 509.018C258.259 510.9 253.741 510.9 249.873 509.018L222.193 495.545C219.692 494.328 216.884 493.883 214.129 494.268L183.64 498.528C179.38 499.123 175.083 497.726 171.986 494.741L149.824 473.374C147.821 471.443 145.289 470.153 142.549 469.667L112.237 464.297C108.001 463.547 104.346 460.891 102.323 457.094L87.8485 429.925C86.5404 427.47 84.5305 425.46 82.0752 424.151L54.9057 409.677C51.1092 407.654 48.4533 403.999 47.7029 399.763L42.3327 369.451C41.8474 366.711 40.5569 364.179 38.626 362.176L17.2591 340.014C14.2735 336.917 12.8772 332.62 13.4724 328.36L17.7321 297.871C18.1171 295.116 17.6724 292.308 16.4549 289.807L2.9822 262.127C1.09964 258.259 1.09964 253.741 2.9822 249.873L16.4549 222.193C17.6724 219.692 18.1171 216.884 17.7321 214.129L13.4724 183.64C12.8772 179.38 14.2735 175.083 17.2591 171.986L38.626 149.824C40.5569 147.821 41.8474 145.289 42.3327 142.549L47.7029 112.237C48.4533 108.001 51.1092 104.346 54.9057 102.323L82.0752 87.8485C84.5305 86.5404 86.5404 84.5305 87.8485 82.0752L102.323 54.9057C104.346 51.1092 108.001 48.4533 112.237 47.7029L142.549 42.3327C145.289 41.8474 147.821 40.5569 149.824 38.626L171.986 17.2591C175.083 14.2735 179.38 12.8772 183.64 13.4724L214.129 17.7321C216.884 18.1171 219.692 17.6724 222.193 16.4549L249.873 2.9822Z" fill="url(#paint0_linear_48_3)"/>
</g>
<path d="M441 256C441 358.173 358.173 441 256 441C153.827 441 71 358.173 71 256C71 153.827 153.827 71 256 71C358.173 71 441 153.827 441 256Z" fill="url(#paint1_linear_48_3)" stroke="url(#paint2_linear_48_3)" stroke-width="40"/>
<ellipse cx="212" cy="172" rx="33" ry="26" fill="#FE860A"/>
<ellipse cx="170" cy="232" rx="17" ry="13" fill="#FE860A"/>
<ellipse cx="315.5" cy="340" rx="25.5" ry="22" fill="#FE9738"/>
</g>
<defs>
<filter id="filter0_d_48_3" x="-2.42969" y="1.57028" width="516.859" height="516.859" filterUnits="userSpaceOnUse" color-interpolation-filters="sRGB">
<feFlood flood-opacity="0" result="BackgroundImageFix"/>
<feColorMatrix in="SourceAlpha" type="matrix" values="0 0 0 0 0 0 0 0 0 0 0 0 0 0 0 0 0 0 127 0" result="hardAlpha"/>
<feOffset dy="4"/>
<feGaussianBlur stdDeviation="2"/>
<feComposite in2="hardAlpha" operator="out"/>
<feColorMatrix type="matrix" values="0 0 0 0 0 0 0 0 0 0 0 0 0 0 0 0 0 0 0.25 0"/>
<feBlend mode="normal" in2="BackgroundImageFix" result="effect1_dropShadow_48_3"/>
<feBlend mode="normal" in="SourceGraphic" in2="effect1_dropShadow_48_3" result="shape"/>
</filter>
<linearGradient id="paint0_linear_48_3" x1="0" y1="256" x2="512" y2="256" gradientUnits="userSpaceOnUse">
<stop stop-color="#FEE97D"/>
<stop offset="1" stop-color="#FEE97D"/>
</linearGradient>
<linearGradient id="paint1_linear_48_3" x1="89.5" y1="256" x2="408.5" y2="256" gradientUnits="userSpaceOnUse">
<stop stop-color="#F88A24"/>
<stop offset="0.635417" stop-color="#FDA656"/>
<stop offset="1" stop-color="#FFB775"/>
</linearGradient>
<linearGradient id="paint2_linear_48_3" x1="51" y1="256" x2="461" y2="264.5" gradientUnits="userSpaceOnUse">
<stop stop-color="#FDB97E"/>
<stop offset="1" stop-color="#FECA9C"/>
</linearGradient>
<clipPath id="clip0_48_3">
<rect width="512" height="512" fill="white"/>
</clipPath>
</defs>
</svg>
