<svg width="2102" height="1167" viewBox="0 0 2102 1167" fill="none" xmlns="http://www.w3.org/2000/svg">
<line x1="2078.06" y1="718.626" x2="1974.06" y2="779.626" stroke="white" stroke-width="20" stroke-linejoin="round"/>
<path d="M2081.1 808.404C2081.87 813.872 2086.94 817.677 2092.4 816.901C2097.87 816.125 2101.68 811.064 2100.9 805.596L2081.1 808.404ZM2067.94 715.615L2081.1 808.404L2100.9 805.596L2087.74 712.807L2067.94 715.615Z" fill="white"/>
<path d="M1982.1 865.391C1982.87 870.861 1987.92 874.671 1993.39 873.903C1998.86 873.134 2002.67 868.078 2001.9 862.609L1982.1 865.391ZM1968.88 771.296L1982.1 865.391L2001.9 862.609L1988.68 768.513L1968.88 771.296Z" fill="white"/>
<line x1="1992.07" y1="863.301" x2="2089.07" y2="808.301" stroke="white" stroke-width="20" stroke-linejoin="round"/>
<path d="M1041.32 352.664C1044.01 360.534 1043.13 370.118 1037.6 381.44C1032.04 392.813 1022.08 405.232 1008.01 417.844C979.886 443.04 936.816 467.657 885.404 485.235C833.992 502.814 784.866 509.719 747.205 507.015C728.353 505.662 712.879 501.937 701.522 496.347C690.215 490.783 683.652 483.743 680.962 475.874C678.271 468.004 679.149 458.42 684.683 447.098C690.241 435.725 700.195 423.306 714.272 410.694C742.394 385.498 785.464 360.881 836.876 343.302C888.288 325.724 937.414 318.819 975.075 321.523C993.927 322.876 1009.4 326.601 1020.76 332.19C1032.07 337.754 1038.63 344.794 1041.32 352.664Z" stroke="white" stroke-width="20" stroke-linejoin="round"/>
<path d="M870.852 482.772C865.755 480.644 859.899 483.051 857.772 488.148C855.644 493.245 858.051 499.101 863.148 501.228L870.852 482.772ZM863.148 501.228L1427.98 736.993L1435.69 718.537L870.852 482.772L863.148 501.228Z" fill="white"/>
<line x1="850.939" y1="531.809" x2="1774.94" y2="927.809" stroke="white" stroke-width="20" stroke-linejoin="round"/>
<line x1="1040.84" y1="382.765" x2="1613.84" y2="620.765" stroke="white" stroke-width="20" stroke-linejoin="round"/>
<path d="M842.15 533.727C843.104 539.167 848.287 542.804 853.727 541.85C859.167 540.896 862.804 535.713 861.85 530.273L842.15 533.727ZM861.85 530.273L855.92 496.455L836.22 499.909L842.15 533.727L861.85 530.273Z" fill="white"/>
<line x1="1648.91" y1="674.434" x2="1986.92" y2="777.434" stroke="white" stroke-width="20" stroke-linejoin="round"/>
<line x1="1421.04" y1="726.315" x2="1605.04" y2="621.315" stroke="white" stroke-width="20" stroke-linejoin="round"/>
<line x1="1459.86" y1="786.425" x2="1644.86" y2="675.425" stroke="white" stroke-width="20" stroke-linejoin="round"/>
<line x1="1429.03" y1="725.695" x2="1460.03" y2="790.695" stroke="white" stroke-width="20" stroke-linejoin="round"/>
<line x1="1612.86" y1="620.819" x2="1648.82" y2="675.142" stroke="white" stroke-width="20" stroke-linecap="round" stroke-linejoin="round"/>
<line x1="1776.06" y1="929.626" x2="1672.06" y2="990.626" stroke="white" stroke-width="20" stroke-linejoin="round"/>
<path d="M1774 928L1792 1013" stroke="white" stroke-width="20" stroke-linecap="round" stroke-linejoin="round"/>
<line x1="1676.78" y1="980.905" x2="1697.78" y2="1078.9" stroke="white" stroke-width="20" stroke-linejoin="round"/>
<path d="M1698.5 1071L1787.07 1017.3" stroke="white" stroke-width="20" stroke-linecap="round" stroke-linejoin="round"/>
<line x1="1689.33" y1="298.195" x2="2080.33" y2="719.195" stroke="white" stroke-width="20" stroke-linejoin="round"/>
<path d="M612.5 929.5L1677 987.5" stroke="white" stroke-width="20" stroke-linejoin="round"/>
<path d="M695.34 1037.01L1695.34 1071.01" stroke="white" stroke-width="20" stroke-linecap="round" stroke-linejoin="round"/>
<path d="M702 1090C702 1128.21 674.901 1157 644 1157C613.099 1157 586 1128.21 586 1090C586 1051.79 613.099 1023 644 1023C674.901 1023 702 1051.79 702 1090Z" stroke="white" stroke-width="20" stroke-linejoin="round"/>
<mask id="path-23-inside-1_26_85" fill="white">
<path d="M505.267 1155.86C489.582 1148.72 475.475 1138.38 463.802 1125.46C452.13 1112.54 443.136 1097.32 437.367 1080.72C431.598 1064.11 429.176 1046.48 430.247 1028.89C431.317 1011.29 435.859 994.104 443.596 978.37C451.332 962.636 462.102 948.683 475.25 937.36C488.398 926.037 503.65 917.581 520.077 912.505C536.505 907.429 553.766 905.84 570.81 907.834C587.854 909.829 604.325 915.364 619.222 924.105L609.903 940.88C597.219 933.438 583.195 928.724 568.684 927.026C554.172 925.329 539.476 926.682 525.489 931.003C511.502 935.325 498.517 942.525 487.323 952.165C476.128 961.806 466.959 973.685 460.372 987.081C453.785 1000.48 449.918 1015.11 449.006 1030.09C448.094 1045.07 450.157 1060.09 455.068 1074.22C459.98 1088.36 467.637 1101.32 477.576 1112.32C487.514 1123.31 499.525 1132.12 512.879 1138.2L505.267 1155.86Z"/>
</mask>
<path d="M505.267 1155.86C489.582 1148.72 475.475 1138.38 463.802 1125.46C452.13 1112.54 443.136 1097.32 437.367 1080.72C431.598 1064.11 429.176 1046.48 430.247 1028.89C431.317 1011.29 435.859 994.104 443.596 978.37C451.332 962.636 462.102 948.683 475.25 937.36C488.398 926.037 503.65 917.581 520.077 912.505C536.505 907.429 553.766 905.84 570.81 907.834C587.854 909.829 604.325 915.364 619.222 924.105L609.903 940.88C597.219 933.438 583.195 928.724 568.684 927.026C554.172 925.329 539.476 926.682 525.489 931.003C511.502 935.325 498.517 942.525 487.323 952.165C476.128 961.806 466.959 973.685 460.372 987.081C453.785 1000.48 449.918 1015.11 449.006 1030.09C448.094 1045.07 450.157 1060.09 455.068 1074.22C459.98 1088.36 467.637 1101.32 477.576 1112.32C487.514 1123.31 499.525 1132.12 512.879 1138.2L505.267 1155.86Z" stroke="white" stroke-width="40" stroke-linejoin="round" mask="url(#path-23-inside-1_26_85)"/>
<line x1="502.866" y1="1145.04" x2="640.866" y2="1157.04" stroke="white" stroke-width="20" stroke-linejoin="round"/>
<line x1="610.973" y1="927.964" x2="691.973" y2="1034.96" stroke="white" stroke-width="20" stroke-linejoin="round"/>
<line x1="606.227" y1="923.2" x2="838.227" y2="499.2" stroke="white" stroke-width="20" stroke-linejoin="round"/>
<path d="M747 510L257.649 951.469" stroke="white" stroke-width="20" stroke-linejoin="round"/>
<line x1="257.837" y1="940.201" x2="272.837" y2="1022.2" stroke="white" stroke-width="20" stroke-linejoin="round"/>
<line x1="266.933" y1="1014.81" x2="453.933" y2="1094.81" stroke="white" stroke-width="20" stroke-linejoin="round"/>
<path d="M226.168 920.396C237.378 941.828 244.818 962.223 247.943 977.688C249.518 985.489 249.876 991.461 249.395 995.458C249.219 996.928 248.972 997.857 248.769 998.418C248.192 998.265 247.288 997.938 245.98 997.244C242.423 995.359 237.722 991.659 232.214 985.915C221.293 974.527 208.787 956.782 197.577 935.349C186.368 913.917 178.927 893.522 175.803 878.057C174.227 870.256 173.869 864.284 174.35 860.287C174.527 858.817 174.773 857.888 174.976 857.327C175.554 857.48 176.458 857.807 177.766 858.501C181.323 860.386 186.023 864.086 191.532 869.83C202.452 881.218 214.959 898.963 226.168 920.396ZM248.403 999.173C248.403 999.173 248.409 999.165 248.422 999.15C248.41 999.166 248.403 999.174 248.403 999.173ZM249.567 998.551C249.587 998.548 249.597 998.548 249.597 998.549C249.598 998.549 249.588 998.55 249.567 998.551ZM175.342 856.572C175.343 856.572 175.336 856.58 175.323 856.595C175.335 856.579 175.342 856.571 175.342 856.572ZM174.178 857.194C174.158 857.197 174.148 857.197 174.148 857.196C174.148 857.196 174.157 857.195 174.178 857.194Z" stroke="white" stroke-width="20" stroke-linejoin="round"/>
<line x1="237.344" y1="790.787" x2="176.344" y2="856.787" stroke="white" stroke-width="20" stroke-linejoin="round"/>
<line x1="207.555" y1="733.098" x2="293.555" y2="777.098" stroke="white" stroke-width="20" stroke-linejoin="round"/>
<line x1="291.069" y1="774.786" x2="337.069" y2="873.786" stroke="white" stroke-width="20" stroke-linejoin="round"/>
<path d="M205 737L235.357 792.472" stroke="white" stroke-width="20" stroke-linecap="round" stroke-linejoin="round"/>
<line x1="282.841" y1="778.433" x2="737.841" y2="504.433" stroke="white" stroke-width="20" stroke-linejoin="round"/>
<line x1="203.285" y1="738.181" x2="680.285" y2="483.181" stroke="white" stroke-width="20" stroke-linejoin="round"/>
<path d="M229.98 790.861L246 793.5L262 800.5L278.5 813L292.5 826.5L302.5 839L312 854L316 863L246 947" stroke="white" stroke-width="20" stroke-linejoin="round"/>
<path d="M1464.17 164.089C1469.19 161.786 1471.39 155.85 1469.09 150.83C1466.79 145.811 1460.85 143.608 1455.83 145.911L1464.17 164.089ZM1047.97 355.012L1464.17 164.089L1455.83 145.911L1039.64 336.833L1047.97 355.012Z" fill="white"/>
<line x1="987.344" y1="322.15" x2="1350.34" y2="131.15" stroke="white" stroke-width="20" stroke-linejoin="round"/>
<path d="M1348 134L1460 155" stroke="white" stroke-width="20" stroke-linecap="round" stroke-linejoin="round"/>
<path d="M1461 155.5L1472.5 160L1483 167.5L1493.5 177L1501.5 185.381L1508 193.5L1515.5 202.5L1526.5 219.5" stroke="white" stroke-width="20" stroke-linejoin="round"/>
<path d="M1569.49 209.37C1763.5 232.5 1703.5 466 1547.49 593.37" stroke="white" stroke-width="20" stroke-linejoin="round"/>
<path d="M1573.59 218.658C1578.93 217.226 1582.09 211.742 1580.66 206.408C1579.23 201.074 1573.74 197.91 1568.41 199.342L1573.59 218.658ZM1046.96 360.012L1573.59 218.658L1568.41 199.342L1041.77 340.695L1046.96 360.012Z" fill="white"/>
<path d="M614.5 926C886 926 1089.5 877 1345 746.5" stroke="white" stroke-width="20" stroke-linejoin="round"/>
<path d="M108.5 862.5C-24.6806 643.088 619.32 200.588 1253.5 184.5" stroke="white" stroke-width="20" stroke-linejoin="round"/>
<line x1="99.8864" y1="854.406" x2="220.886" y2="782.406" stroke="white" stroke-width="20" stroke-linejoin="round"/>
<path d="M119 843L119 877.5L143 926.395L189.408 926.395" stroke="white" stroke-width="20" stroke-linejoin="round"/>
<path d="M1570.5 725.5L1992.15 863.865" stroke="white" stroke-width="20" stroke-linejoin="round"/>
<line x1="197.101" y1="599.429" x2="679.101" y2="453.429" stroke="white" stroke-width="20" stroke-linejoin="round"/>
<line x1="993.296" y1="215.584" x2="923.296" y2="319.584" stroke="white" stroke-width="20" stroke-linejoin="round"/>
<path d="M982.182 732.141C983.924 739.073 981.319 747.993 972.423 757.182C963.649 766.244 949.764 774.311 932.721 778.593C915.678 782.875 899.628 782.329 887.613 778.49C875.43 774.597 868.918 767.967 867.176 761.035C865.435 754.103 868.04 745.183 876.936 735.993C885.71 726.931 899.595 718.865 916.638 714.583C933.681 710.301 949.731 710.847 961.746 714.686C973.929 718.578 980.441 725.209 982.182 732.141Z" stroke="white" stroke-width="20" stroke-linejoin="round"/>
<path d="M1362.56 400.469C1361.45 393.408 1364.85 384.758 1374.54 376.406C1384.09 368.17 1398.64 361.384 1416 358.652C1433.36 355.919 1449.3 357.906 1460.92 362.81C1472.7 367.782 1478.59 374.971 1479.7 382.032C1480.81 389.092 1477.42 397.743 1467.73 406.095C1458.18 414.331 1443.62 421.117 1426.26 423.849C1408.91 426.581 1392.97 424.594 1381.35 419.691C1369.56 414.718 1363.68 407.529 1362.56 400.469Z" stroke="white" stroke-width="20" stroke-linejoin="round"/>
</svg>
